<svg height="512" viewBox="0 0 512 512" width="512" xmlns="http://www.w3.org/2000/svg"><g fill="none" fill-rule="evenodd"><path d="m276.000078 309.292915v21.707085c0 48.781051-34.92843 89.404149-81.139938 98.224096.742199-2.615211 1.13986-5.373214 1.13986-8.224096 0-4.239461-.879379-8.273533-2.465679-11.929758 35.748595-7.991536 62.465679-39.910834 62.465679-78.070242l-.000078-21.707085c3.127811 1.105533 6.493695 1.707085 10.000078 1.707085s6.872267-.601552 10.000078-1.707085zm-100-100.000058v183.414286c-3.127811-1.105591-6.493695-1.707143-10.000078-1.707143-3.506445 0-6.872384.601573-10.000242 1.707143v-183.414286c3.127858 1.10557 6.493797 1.707143 10.000242 1.707143 3.506383 0 6.872267-.601552 10.000078-1.707143zm155.571741-1.983853c4.280989 2.352744 9.198302 3.690996 14.428181 3.690996 1.907317 0 3.773062-.177992 5.58153-.518272-8.712957 28.287554-29.640616 51.221816-56.625432 62.646411-1.876767-6.91997-6.166369-12.84498-11.909498-16.817762 22.30948-8.011179 40.026905-25.654687 48.139856-47.915479zm-75.571819-126.309004c44.966467 0 83.000967 29.679277 95.582871 70.5172-1.810497-.339274-3.675906-.5172-5.582871-.5172-5.229879 0-10.147192 1.338252-14.428181 3.690996-10.878984-31.258324-40.605686-53.690996-75.571819-53.690996-34.965869 0-64.692385 22.432333-75.573174 53.690996-4.280065-2.352862-9.197177-3.690996-14.426826-3.690996-1.907138 0-3.772711.177958-5.58102.518176 12.580053-40.838899 50.614553-70.518176 95.58102-70.518176z" fill="#28ca86" fill-rule="nonzero"/><path d="m346 201c11.045695 0 20-8.954305 20-20s-8.954305-20-20-20-20 8.954305-20 20 8.954305 20 20 20zm-180 0c11.045695 0 20-8.954305 20-20s-8.954305-20-20-20-20 8.954305-20 20 8.954305 20 20 20zm0 240c11.045695 0 20-8.954305 20-20s-8.954305-20-20-20-20 8.954305-20 20 8.954305 20 20 20zm100-140c11.045695 0 20-8.954305 20-20s-8.954305-20-20-20-20 8.954305-20 20 8.954305 20 20 20z" fill="#083a25"/></g></svg>