<svg height="48" viewBox="0 0 48 48" width="48" xmlns="http://www.w3.org/2000/svg"><g fill="none" fill-rule="evenodd"><path d="m10.2555408 0h27.4889184c3.566075-0 4.8592199.37130245 6.1629236 1.06853082s2.326858 1.72038266 3.0240864 3.02408637c.6972284 1.3037037 1.0685308 2.59684865 1.0685308 6.16292361v27.4889184c0 3.566075-.3713024 4.8592199-1.0685308 6.1629236s-1.7203827 2.326858-3.0240864 3.0240864-2.5968486 1.0685308-6.1629236 1.0685308h-27.4889184c-3.56607496 0-4.85921991-.3713024-6.16292361-1.0685308-1.30370371-.6972284-2.326858-1.7203827-3.02408637-3.0240864s-1.06853082-2.5968486-1.06853082-6.1629236v-27.4889184c-0-3.56607496.37130245-4.85921991 1.06853082-6.16292361.69722837-1.30370371 1.72038266-2.326858 3.02408637-3.02408637 1.3037037-.69722837 2.59684865-1.06853082 6.16292361-1.06853082z" fill="#05241f"/><path d="m3.375 15.375c.41421356 0 .75-.3357864.75-.75s-.33578644-.75-.75-.75-.75.3357864-.75.75.33578644.75.75.75zm3.75 0c.41421356 0 .75-.3357864.75-.75s-.33578644-.75-.75-.75-.75.3357864-.75.75.33578644.75.75.75zm3.75 0c.4142136 0 .75-.3357864.75-.75s-.3357864-.75-.75-.75-.75.3357864-.75.75.3357864.75.75.75zm-7.5 3.75c.41421356 0 .75-.3357864.75-.75s-.33578644-.75-.75-.75-.75.3357864-.75.75.33578644.75.75.75zm3.75 0c.41421356 0 .75-.3357864.75-.75s-.33578644-.75-.75-.75-.75.3357864-.75.75.33578644.75.75.75zm3.75 0c.4142136 0 .75-.3357864.75-.75s-.3357864-.75-.75-.75-.75.3357864-.75.75.3357864.75.75.75zm-3.75-15c.41421356 0 .75-.33578644.75-.75s-.33578644-.75-.75-.75-.75.33578644-.75.75.33578644.75.75.75zm3.75 0c.4142136 0 .75-.33578644.75-.75s-.3357864-.75-.75-.75-.75.33578644-.75.75.3357864.75.75.75zm3.75 0c.4142136 0 .75-.33578644.75-.75s-.3357864-.75-.75-.75-.75.33578644-.75.75.3357864.75.75.75zm3.75 0c.4142136 0 .75-.33578644.75-.75s-.3357864-.75-.75-.75-.75.33578644-.75.75.3357864.75.75.75zm3.75 0c.4142136 0 .75-.33578644.75-.75s-.3357864-.75-.75-.75-.75.33578644-.75.75.3357864.75.75.75zm-18.75 18.75c.41421356 0 .75-.3357864.75-.75s-.33578644-.75-.75-.75-.75.3357864-.75.75.33578644.75.75.75zm3.75 0c.41421356 0 .75-.3357864.75-.75s-.33578644-.75-.75-.75-.75.3357864-.75.75.33578644.75.75.75zm3.75 0c.4142136 0 .75-.3357864.75-.75s-.3357864-.75-.75-.75-.75.3357864-.75.75.3357864.75.75.75zm-7.5-15c.41421356 0 .75-.33578644.75-.75s-.33578644-.75-.75-.75-.75.33578644-.75.75.33578644.75.75.75zm3.75 0c.41421356 0 .75-.33578644.75-.75s-.33578644-.75-.75-.75-.75.33578644-.75.75.33578644.75.75.75zm3.75 0c.4142136 0 .75-.33578644.75-.75s-.3357864-.75-.75-.75-.75.33578644-.75.75.3357864.75.75.75zm3.75 0c.4142136 0 .75-.33578644.75-.75s-.3357864-.75-.75-.75-.75.33578644-.75.75.3357864.75.75.75zm-11.25 3.75c.41421356 0 .75-.3357864.75-.75s-.33578644-.75-.75-.75-.75.3357864-.75.75.33578644.75.75.75zm3.75 0c.41421356 0 .75-.3357864.75-.75s-.33578644-.75-.75-.75-.75.3357864-.75.75.33578644.75.75.75zm3.75 0c.4142136 0 .75-.3357864.75-.75s-.3357864-.75-.75-.75-.75.3357864-.75.75.3357864.75.75.75zm26.25 3.75c.4142136 0 .75-.3357864.75-.75s-.3357864-.75-.75-.75-.75.3357864-.75.75.3357864.75.75.75zm3.75 0c.4142136 0 .75-.3357864.75-.75s-.3357864-.75-.75-.75-.75.3357864-.75.75.3357864.75.75.75zm-3.75 3.75c.4142136 0 .75-.3357864.75-.75s-.3357864-.75-.75-.75-.75.3357864-.75.75.3357864.75.75.75zm3.75 0c.4142136 0 .75-.3357864.75-.75s-.3357864-.75-.75-.75-.75.3357864-.75.75.3357864.75.75.75zm-15-15c.4142136 0 .75-.33578644.75-.75s-.3357864-.75-.75-.75-.75.33578644-.75.75.3357864.75.75.75zm3.75 0c.4142136 0 .75-.33578644.75-.75s-.3357864-.75-.75-.75-.75.33578644-.75.75.3357864.75.75.75zm3.75 0c.4142136 0 .75-.33578644.75-.75s-.3357864-.75-.75-.75-.75.33578644-.75.75.3357864.75.75.75zm3.75 0c.4142136 0 .75-.33578644.75-.75s-.3357864-.75-.75-.75-.75.33578644-.75.75.3357864.75.75.75zm3.75 0c.4142136 0 .75-.33578644.75-.75s-.3357864-.75-.75-.75-.75.33578644-.75.75.3357864.75.75.75zm-3.75 18.75c.4142136 0 .75-.3357864.75-.75s-.3357864-.75-.75-.75-.75.3357864-.75.75.3357864.75.75.75zm3.75 0c.4142136 0 .75-.3357864.75-.75s-.3357864-.75-.75-.75-.75.3357864-.75.75.3357864.75.75.75zm-7.5-15c.4142136 0 .75-.33578644.75-.75s-.3357864-.75-.75-.75-.75.33578644-.75.75.3357864.75.75.75zm3.75 0c.4142136 0 .75-.33578644.75-.75s-.3357864-.75-.75-.75-.75.33578644-.75.75.3357864.75.75.75zm3.75 0c.4142136 0 .75-.33578644.75-.75s-.3357864-.75-.75-.75-.75.33578644-.75.75.3357864.75.75.75zm-3.75 3.75c.4142136 0 .75-.3357864.75-.75s-.3357864-.75-.75-.75-.75.3357864-.75.75.3357864.75.75.75zm3.75 0c.4142136 0 .75-.3357864.75-.75s-.3357864-.75-.75-.75-.75.3357864-.75.75.3357864.75.75.75zm3.75 3.75c.4142136 0 .75-.3357864.75-.75s-.3357864-.75-.75-.75-.75.3357864-.75.75.3357864.75.75.75zm0 3.75c.4142136 0 .75-.3357864.75-.75s-.3357864-.75-.75-.75-.75.3357864-.75.75.3357864.75.75.75zm0 3.75c.4142136 0 .75-.3357864.75-.75s-.3357864-.75-.75-.75-.75.3357864-.75.75.3357864.75.75.75zm0-15c.4142136 0 .75-.33578644.75-.75s-.3357864-.75-.75-.75-.75.33578644-.75.75.3357864.75.75.75zm0 3.75c.4142136 0 .75-.3357864.75-.75s-.3357864-.75-.75-.75-.75.3357864-.75.75.3357864.75.75.75zm-41.25 15c.41421356 0 .75-.3357864.75-.75s-.33578644-.75-.75-.75-.75.3357864-.75.75.33578644.75.75.75zm3.75 0c.41421356 0 .75-.3357864.75-.75s-.33578644-.75-.75-.75-.75.3357864-.75.75.33578644.75.75.75zm3.75 0c.4142136 0 .75-.3357864.75-.75s-.3357864-.75-.75-.75-.75.3357864-.75.75.3357864.75.75.75zm-7.5 3.75c.41421356 0 .75-.3357864.75-.75s-.33578644-.75-.75-.75-.75.3357864-.75.75.33578644.75.75.75zm3.75 0c.41421356 0 .75-.3357864.75-.75s-.33578644-.75-.75-.75-.75.3357864-.75.75.33578644.75.75.75zm3.75 0c.4142136 0 .75-.3357864.75-.75s-.3357864-.75-.75-.75-.75.3357864-.75.75.3357864.75.75.75zm-7.5 3.75c.41421356 0 .75-.3357864.75-.75s-.33578644-.75-.75-.75-.75.3357864-.75.75.33578644.75.75.75zm3.75 0c.41421356 0 .75-.3357864.75-.75s-.33578644-.75-.75-.75-.75.3357864-.75.75.33578644.75.75.75zm3.75 0c.4142136 0 .75-.3357864.75-.75s-.3357864-.75-.75-.75-.75.3357864-.75.75.3357864.75.75.75zm-7.5 3.75c.41421356 0 .75-.3357864.75-.75s-.33578644-.75-.75-.75-.75.3357864-.75.75.33578644.75.75.75zm3.75 0c.41421356 0 .75-.3357864.75-.75s-.33578644-.75-.75-.75-.75.3357864-.75.75.33578644.75.75.75zm3.75 0c.4142136 0 .75-.3357864.75-.75s-.3357864-.75-.75-.75-.75.3357864-.75.75.3357864.75.75.75zm-7.5 3.75c.41421356 0 .75-.3357864.75-.75s-.33578644-.75-.75-.75-.75.3357864-.75.75.33578644.75.75.75zm3.75 0c.41421356 0 .75-.3357864.75-.75s-.33578644-.75-.75-.75-.75.3357864-.75.75.33578644.75.75.75zm3.75 0c.4142136 0 .75-.3357864.75-.75s-.3357864-.75-.75-.75-.75.3357864-.75.75.3357864.75.75.75zm-3.75 3.75c.41421356 0 .75-.3357864.75-.75s-.33578644-.75-.75-.75-.75.3357864-.75.75.33578644.75.75.75zm3.75 0c.4142136 0 .75-.3357864.75-.75s-.3357864-.75-.75-.75-.75.3357864-.75.75.3357864.75.75.75zm3.75 0c.4142136 0 .75-.3357864.75-.75s-.3357864-.75-.75-.75-.75.3357864-.75.75.3357864.75.75.75zm3.75 0c.4142136 0 .75-.3357864.75-.75s-.3357864-.75-.75-.75-.75.3357864-.75.75.3357864.75.75.75zm3.75 0c.4142136 0 .75-.3357864.75-.75s-.3357864-.75-.75-.75-.75.3357864-.75.75.3357864.75.75.75zm11.25-18.75c.4142136 0 .75-.3357864.75-.75s-.3357864-.75-.75-.75-.75.3357864-.75.75.3357864.75.75.75zm3.75 0c.4142136 0 .75-.3357864.75-.75s-.3357864-.75-.75-.75-.75.3357864-.75.75.3357864.75.75.75zm3.75 0c.4142136 0 .75-.3357864.75-.75s-.3357864-.75-.75-.75-.75.3357864-.75.75.3357864.75.75.75zm-11.25 3.75c.4142136 0 .75-.3357864.75-.75s-.3357864-.75-.75-.75-.75.3357864-.75.75.3357864.75.75.75zm3.75 0c.4142136 0 .75-.3357864.75-.75s-.3357864-.75-.75-.75-.75.3357864-.75.75.3357864.75.75.75zm3.75 0c.4142136 0 .75-.3357864.75-.75s-.3357864-.75-.75-.75-.75.3357864-.75.75.3357864.75.75.75zm3.75 0c.4142136 0 .75-.3357864.75-.75s-.3357864-.75-.75-.75-.75.3357864-.75.75.3357864.75.75.75zm-11.25 3.75c.4142136 0 .75-.3357864.75-.75s-.3357864-.75-.75-.75-.75.3357864-.75.75.3357864.75.75.75zm3.75 0c.4142136 0 .75-.3357864.75-.75s-.3357864-.75-.75-.75-.75.3357864-.75.75.3357864.75.75.75zm3.75 0c.4142136 0 .75-.3357864.75-.75s-.3357864-.75-.75-.75-.75.3357864-.75.75.3357864.75.75.75zm3.75 0c.4142136 0 .75-.3357864.75-.75s-.3357864-.75-.75-.75-.75.3357864-.75.75.3357864.75.75.75zm-11.25 3.75c.4142136 0 .75-.3357864.75-.75s-.3357864-.75-.75-.75-.75.3357864-.75.75.3357864.75.75.75zm3.75 0c.4142136 0 .75-.3357864.75-.75s-.3357864-.75-.75-.75-.75.3357864-.75.75.3357864.75.75.75zm3.75 0c.4142136 0 .75-.3357864.75-.75s-.3357864-.75-.75-.75-.75.3357864-.75.75.3357864.75.75.75zm3.75 0c.4142136 0 .75-.3357864.75-.75s-.3357864-.75-.75-.75-.75.3357864-.75.75.3357864.75.75.75zm-15 3.75c.4142136 0 .75-.3357864.75-.75s-.3357864-.75-.75-.75-.75.3357864-.75.75.3357864.75.75.75zm3.75 0c.4142136 0 .75-.3357864.75-.75s-.3357864-.75-.75-.75-.75.3357864-.75.75.3357864.75.75.75zm3.75 0c.4142136 0 .75-.3357864.75-.75s-.3357864-.75-.75-.75-.75.3357864-.75.75.3357864.75.75.75zm3.75 0c.4142136 0 .75-.3357864.75-.75s-.3357864-.75-.75-.75-.75.3357864-.75.75.3357864.75.75.75zm3.75 0c.4142136 0 .75-.3357864.75-.75s-.3357864-.75-.75-.75-.75.3357864-.75.75.3357864.75.75.75zm3.75-15c.4142136 0 .75-.3357864.75-.75s-.3357864-.75-.75-.75-.75.3357864-.75.75.3357864.75.75.75zm0 3.75c.4142136 0 .75-.3357864.75-.75s-.3357864-.75-.75-.75-.75.3357864-.75.75.3357864.75.75.75zm0 3.75c.4142136 0 .75-.3357864.75-.75s-.3357864-.75-.75-.75-.75.3357864-.75.75.3357864.75.75.75zm0 3.75c.4142136 0 .75-.3357864.75-.75s-.3357864-.75-.75-.75-.75.3357864-.75.75.3357864.75.75.75zm0 3.75c.4142136 0 .75-.3357864.75-.75s-.3357864-.75-.75-.75-.75.3357864-.75.75.3357864.75.75.75zm-18.75 3.75c.4142136 0 .75-.3357864.75-.75s-.3357864-.75-.75-.75-.75.3357864-.75.75.3357864.75.75.75zm3.75 0c.4142136 0 .75-.3357864.75-.75s-.3357864-.75-.75-.75-.75.3357864-.75.75.3357864.75.75.75zm3.75 0c.4142136 0 .75-.3357864.75-.75s-.3357864-.75-.75-.75-.75.3357864-.75.75.3357864.75.75.75zm3.75 0c.4142136 0 .75-.3357864.75-.75s-.3357864-.75-.75-.75-.75.3357864-.75.75.3357864.75.75.75zm3.75 0c.4142136 0 .75-.3357864.75-.75s-.3357864-.75-.75-.75-.75.3357864-.75.75.3357864.75.75.75z" fill="#e1e7e5" opacity=".098214"/><g transform="translate(13.6875 7.59375)"><path d="m12.1875073 21.4024608v2.0350392c0 4.5732236-3.27454034 8.381639-7.60686916 9.208509.06958115-.2451761.10686186-.5037388.10686186-.771009 0-.3974495-.08244174-.7756437-.23115745-1.1184148 3.35143086-.7492065 5.85615745-3.7416407 5.85615745-7.3190852l-.0000073-2.0350392c.2932323.1036437.6087839.1600392.9375073.1600392s.644275-.0563955.9375073-.1600392zm-9.37499998-9.3750054v17.1950892c-.29323231-.1036491-.60878388-.1600446-.93750732-.1600446-.32872918 0-.64428602.0563975-.93752267.1600446v-17.1950892c.29323665.1036471.60879349.1600446.93752267.1600446.32872344 0 .64427501-.0563955.93750732-.1600446zm14.58485068-.1859863c.4013427.2205698.8623409.3460309 1.352642.3460309.178811 0 .3537246-.0166867.5232685-.048588-.8168398 2.6519582-2.7788078 4.8020453-5.3086343 5.873101-.1759469-.6487472-.5780971-1.2042168-1.1165154-1.5766652 2.0915137-.751048 3.7525223-2.4051269 4.5131115-4.4920761zm-7.084858-11.8414691c4.2156063 0 7.7813407 2.78243221 8.9608941 6.61098753-.1697341-.03180694-.3446161-.04848753-.5233941-.04848753-.4903011 0-.9512993.12546109-1.352642.34603086-1.0199047-2.93046784-3.806783-5.03353086-7.084858-5.03353086-3.2780502 0-6.06491113 2.10303123-7.08498506 5.03353086-.40125614-.22058078-.86223532-.34603086-1.35251494-.34603086-.17879414 0-.35369162.0166836-.52322059.04857895 1.17937991-3.82864674 4.74511432-6.61107895 8.96072059-6.61107895z" fill="#28ca86" fill-rule="nonzero"/><path d="m18.75 11.25c1.0355339 0 1.875-.8394661 1.875-1.875 0-1.03553391-.8394661-1.875-1.875-1.875s-1.875.83946609-1.875 1.875c0 1.0355339.8394661 1.875 1.875 1.875zm-16.875 0c1.03553391 0 1.875-.8394661 1.875-1.875 0-1.03553391-.83946609-1.875-1.875-1.875s-1.875.83946609-1.875 1.875c0 1.0355339.83946609 1.875 1.875 1.875zm0 22.5c1.03553391 0 1.875-.8394661 1.875-1.875s-.83946609-1.875-1.875-1.875-1.875.8394661-1.875 1.875.83946609 1.875 1.875 1.875zm9.375-13.125c1.0355339 0 1.875-.8394661 1.875-1.875s-.8394661-1.875-1.875-1.875-1.875.8394661-1.875 1.875.8394661 1.875 1.875 1.875z" fill="#fff"/></g></g></svg>