<svg height="15" viewBox="0 0 19 15" width="19" xmlns="http://www.w3.org/2000/svg"><path d="m1163.075 73.4101562c.2474 0 .46875-.094401.66406-.2832031l6.12305-6.1132812c.20182-.1888021.30273-.4199219.30273-.6933594 0-.2669271-.10091-.4980469-.30273-.6933594l-6.09375-6.0839843c-.11068-.1106771-.22298-.1904297-.33691-.2392579-.11394-.0488281-.23275-.0732421-.35645-.0732421-.26042 0-.47852.0846354-.6543.2539062s-.26367.3841146-.26367.6445312c0 .1302084.02279.2522787.06836.366211s.11068.2132161.19531.2978516l2.08008 2.109375 2.50683 2.4902343h-1.81347-11.42578c-.27344 0-.49805.086263-.67383.2587891-.17578.172526-.26367.3955078-.26367.6689453 0 .2799479.08789.5061849.26367.6787109.17578.1725261.40039.2587891.67383.2587891h11.42578 1.81347l-2.50683 2.4902344-2.08008 2.109375c-.08463.0846354-.14974.1839192-.19531.2978515s-.06836.2360026-.06836.366211c0 .2539062.08789.4654948.26367.6347656s.39388.2539062.6543.2539062z" fill="#28ca86" transform="translate(-1152 -59)"/></svg>